<?xml version="1.0" encoding="UTF-8"?>
<svg version="1.1" xmlns="http://www.w3.org/2000/svg" width="90" height="110">
<path d="M0 0 C29.7 0 59.4 0 90 0 C90 36.3 90 72.6 90 110 C60.3 110 30.6 110 0 110 C0 73.7 0 37.4 0 0 Z " fill="#F8F9F6" transform="translate(0,0)"/>
<path d="M0 0 C7.58291457 5.37175168 13.67268366 13.25347634 15.62109375 22.4921875 C16.40654318 30.35759084 15.36446816 37.11120397 12.62109375 44.4921875 C5.31230843 43.48772514 -1.10276439 38.6611764 -6.50390625 33.8046875 C-11.06237118 30.13809614 -15.74365416 27.44246576 -21.69140625 27.5546875 C-24.42183784 28.50716364 -26.16075945 29.67013834 -28.37890625 31.4921875 C-29.03890625 31.4921875 -29.69890625 31.4921875 -30.37890625 31.4921875 C-30.37890625 32.1521875 -30.37890625 32.8121875 -30.37890625 33.4921875 C-38.59647479 38.07054712 -46.94553445 42.33090331 -55.37890625 46.4921875 C-61.33496468 39.01855801 -61.21607521 29.69071065 -60.37890625 20.4921875 C-57.93424482 10.63425546 -51.91556219 3.75005863 -43.37890625 -1.5078125 C-30.44708423 -8.75679232 -12.29516897 -7.79299708 0 0 Z " fill="#BB6942" transform="translate(68.37890625,13.5078125)"/>
<path d="M0 0 C5.07490494 1.63429142 9.22673177 4.31695079 13.6875 7.1875 C14.3475 7.5175 15.0075 7.8475 15.6875 8.1875 C15.6875 8.8475 15.6875 9.5075 15.6875 10.1875 C16.5125 10.414375 17.3375 10.64125 18.1875 10.875 C22.41886618 12.46176232 25.93921013 14.69498237 29.6875 17.1875 C27.69682898 30.83438931 11.61310291 44.70681329 1.84375 53.80859375 C-0.3125 55.1875 -0.3125 55.1875 -2.25 55.20703125 C-14.19067671 49.30453765 -28.99210017 32.27507504 -34.3125 20.1875 C-34.3125 19.1975 -34.3125 18.2075 -34.3125 17.1875 C-33.58546875 16.90777344 -32.8584375 16.62804687 -32.109375 16.33984375 C-22.94865461 12.68730011 -14.21948874 8.3906606 -6.5 2.1875 C-3.3125 0.1875 -3.3125 0.1875 0 0 Z " fill="#595C2C" transform="translate(48.3125,44.8125)"/>
<path d="M0 0 C0.33 0.99 0.66 1.98 1 3 C1.59167969 3.06058594 2.18335937 3.12117188 2.79296875 3.18359375 C13.67494824 4.33747412 13.67494824 4.33747412 17 6 C18 8 19 10 20 12 C20.515625 12.515625 21.03125 13.03125 21.5625 13.5625 C23.4636497 15.4636497 24.11822728 17.49033918 25 20 C26.98 20 28.96 20 31 20 C31 21.32 31 22.64 31 24 C27.60595448 26.06953995 25.51634404 27.00922043 21.5 26.9375 C17.62160905 25.89864528 15.23840189 24.34267371 12 22 C7.22423895 19.33493936 7.22423895 19.33493936 2 18 C-0.02442624 19.20843981 -0.02442624 19.20843981 -2 20.9375 C-7.44124423 24.82024216 -12.50329665 24.94365524 -19 24 C-23.61736237 22.45220811 -23.61736237 22.45220811 -25.375 20.375 C-26.32320174 16.77183337 -26.02443284 13.57088019 -25 10 C-23.125 7.5 -23.125 7.5 -21 6 C-20.01 6 -19.02 6 -18 6 C-17.67 4.68 -17.34 3.36 -17 2 C-11.16200408 0.30167391 -6.06892629 -0.25287193 0 0 Z " fill="#F9E0AA" transform="translate(45,20)"/>
<path d="M0 0 C4.32325719 0.27696543 8.17475922 1.12203566 12.33984375 2.25 C13.07138672 2.44078125 13.80292969 2.6315625 14.55664062 2.828125 C16.34054041 3.29450403 18.1217422 3.77118278 19.90234375 4.25 C20.23234375 5.9 20.56234375 7.55 20.90234375 9.25 C21.56234375 9.25 22.22234375 9.25 22.90234375 9.25 C22.90234375 9.91 22.90234375 10.57 22.90234375 11.25 C23.89234375 11.25 24.88234375 11.25 25.90234375 11.25 C28.90234375 17 28.90234375 17 28.90234375 19.25 C30.22234375 19.58 31.54234375 19.91 32.90234375 20.25 C34.76560662 27.23723575 35.64145122 34.01109445 34.90234375 41.25 C34.24234375 42.24 33.58234375 43.23 32.90234375 44.25 C31.91234375 43.92 30.92234375 43.59 29.90234375 43.25 C30.56234375 43.25 31.22234375 43.25 31.90234375 43.25 C30.91234375 42.26 29.92234375 41.27 28.90234375 40.25 C28.90234375 40.91 28.90234375 41.57 28.90234375 42.25 C27.25234375 41.92 25.60234375 41.59 23.90234375 41.25 C23.90234375 40.59 23.90234375 39.93 23.90234375 39.25 C23.24234375 39.25 22.58234375 39.25 21.90234375 39.25 C22.90234375 36.25 22.90234375 36.25 25.90234375 34.25 C26.89234375 34.25 27.88234375 34.25 28.90234375 34.25 C28.90234375 32.93 28.90234375 31.61 28.90234375 30.25 C27.97421875 30.353125 27.04609375 30.45625 26.08984375 30.5625 C25.03796875 30.459375 23.98609375 30.35625 22.90234375 30.25 C21.01635032 27.86107499 19.90234375 26.33148442 19.90234375 23.25 C19.26296875 23.023125 18.62359375 22.79625 17.96484375 22.5625 C15.90234375 21.25 15.90234375 21.25 15.15234375 18.625 C15.06984375 17.84125 14.98734375 17.0575 14.90234375 16.25 C13.93296875 16.105625 12.96359375 15.96125 11.96484375 15.8125 C11.33191406 15.71453125 10.69898438 15.6165625 10.046875 15.515625 C7.87119362 15.2134563 7.87119362 15.2134563 5.5390625 15.171875 C3.19353233 15.06438753 1.15404291 14.92416142 -1.09765625 14.25 C-3.16015625 11.1875 -3.16015625 11.1875 -4.09765625 8.25 C-3.43765625 7.92 -2.77765625 7.59 -2.09765625 7.25 C-2.44552333 5.27463255 -2.44552333 5.27463255 -3.09765625 3.25 C-3.75765625 2.92 -4.41765625 2.59 -5.09765625 2.25 C-3.09765625 0.25 -3.09765625 0.25 0 0 Z " fill="#C1683C" transform="translate(47.09765625,9.75)"/>
<path d="M0 0 C5.07490494 1.63429142 9.22673177 4.31695079 13.6875 7.1875 C14.3475 7.5175 15.0075 7.8475 15.6875 8.1875 C15.6875 8.8475 15.6875 9.5075 15.6875 10.1875 C17.6675 10.8475 19.6475 11.5075 21.6875 12.1875 C16.3075 21.6025 16.3075 21.6025 12.4375 23 C11.86 23.061875 11.2825 23.12375 10.6875 23.1875 C10.6875 24.5075 10.6875 25.8275 10.6875 27.1875 C10.0275 27.1875 9.3675 27.1875 8.6875 27.1875 C8.254375 28.3940625 8.254375 28.3940625 7.8125 29.625 C6.6875 32.1875 6.6875 32.1875 4.6875 33.1875 C2.3545134 33.22772391 0.02043334 33.23070247 -2.3125 33.1875 C-4.11480168 29.35760894 -4.50872241 26.40628192 -4.3125 22.1875 C-4.9725 22.1875 -5.6325 22.1875 -6.3125 22.1875 C-6.3125 17.2375 -6.3125 12.2875 -6.3125 7.1875 C-7.6325 6.5275 -8.9525 5.8675 -10.3125 5.1875 C-4.41121668 0.24969151 -4.41121668 0.24969151 0 0 Z " fill="#8D9933" transform="translate(48.3125,44.8125)"/>
<path d="M0 0 C8.51701445 4.08816694 13.0769046 10.48071881 16.30859375 19.296875 C18.49873171 27.85944828 17.02651172 35.85724229 14 44 C6.69121468 42.99553764 0.27614186 38.1689889 -5.125 33.3125 C-9.68346493 29.64590864 -14.36474791 26.95027826 -20.3125 27.0625 C-23.04293159 28.01497614 -24.7818532 29.17795084 -27 31 C-27.66 31 -28.32 31 -29 31 C-29 31.66 -29 32.32 -29 33 C-37.21756854 37.57835962 -45.5666282 41.83871581 -54 46 C-57 42.375 -57 42.375 -57 39 C-56.34 39 -55.68 39 -55 39 C-55 39.66 -55 40.32 -55 41 C-53.35 41 -51.7 41 -50 41 C-49.67 40.34 -49.34 39.68 -49 39 C-47.02 39 -45.04 39 -43 39 C-43 38.34 -43 37.68 -43 37 C-42.34 37 -41.68 37 -41 37 C-40.67 36.01 -40.34 35.02 -40 34 C-38.35 34 -36.7 34 -35 34 C-34.67 33.01 -34.34 32.02 -34 31 C-32.36328125 29.97265625 -32.36328125 29.97265625 -30.3125 29.0625 C-27.49238421 27.7609081 -25.3193878 26.51571824 -22.75 24.6875 C-20 23 -20 23 -18.16015625 23.21484375 C-15.4937177 24.18401942 -13.15387083 25.47262224 -10.6875 26.875 C-6.52863965 29.19415001 -2.41833289 31.23266684 2 33 C2 33.66 2 34.32 2 35 C2.66 35 3.32 35 4 35 C4 35.66 4 36.32 4 37 C5.65 37.33 7.3 37.66 9 38 C9 37.34 9 36.68 9 36 C12 37 12 37 13 39 C16.20987608 32.58024784 14.04661205 22.57070183 12 16 C11.01 15.67 10.02 15.34 9 15 C6 9.77777778 6 9.77777778 6 7 C5.01 7 4.02 7 3 7 C3 6.34 3 5.68 3 5 C2.34 5 1.68 5 1 5 C0.505 2.525 0.505 2.525 0 0 Z " fill="#B56849" transform="translate(67,14)"/>
<path d="M0 0 C6.72627884 2.75379012 12.14829264 6.43673127 17.67578125 11.1328125 C21.17950614 13.94756964 24.96027158 16.05494557 29 18 C28.01 20.64 27.02 23.28 26 26 C25 24 25 24 25 21 C20.71 18.69 16.42 16.38 12 14 C12 13.34 12 12.68 12 12 C11.360625 11.773125 10.72125 11.54625 10.0625 11.3125 C6.60374947 9.83017834 3.49139241 7.97891157 0.28125 6.0234375 C-2.43205124 4.80616879 -4.05463142 4.6029754 -7 5 C-9.23069844 6.23136872 -9.23069844 6.23136872 -11.375 8 C-15.64305898 11.13076183 -19.98789316 13.84083441 -24.625 16.375 C-25.2339209 16.72046875 -25.8428418 17.0659375 -26.47021484 17.421875 C-30.99995349 19.85394944 -34.8750533 20.60403282 -40 21 C-40.33 19.68 -40.66 18.36 -41 17 C-40.34 17.33 -39.68 17.66 -39 18 C-36.34574055 16.84843228 -33.81511533 15.63872898 -31.25 14.3125 C-30.54617187 13.95994141 -29.84234375 13.60738281 -29.1171875 13.24414062 C-25.82655755 11.57130179 -22.69705948 9.84978062 -19.671875 7.73046875 C-17 6 -17 6 -14 6 C-14 5.34 -14 4.68 -14 4 C-9.56271845 0.18213592 -5.75191784 -2.07069042 0 0 Z " fill="#F0E2C2" transform="translate(52,41)"/>
<path d="M0 0 C3.40312738 1.05875074 6.01353231 2.00902154 9 4 C7.68856697 12.99042645 0.39858385 19.85632251 -5.3125 26.5625 C-5.84012939 27.1824585 -6.36775879 27.80241699 -6.91137695 28.44116211 C-10.7460683 32.87303415 -10.7460683 32.87303415 -13 34 C-12.67 32.68 -12.34 31.36 -12 30 C-11.34 30 -10.68 30 -10 30 C-10 29.01 -10 28.02 -10 27 C-10.66 26.67 -11.32 26.34 -12 26 C-11.34 25.67 -10.68 25.34 -10 25 C-10 24.34 -10 23.68 -10 23 C-10.66 23 -11.32 23 -12 23 C-11.45276317 19.62537285 -10.9451 17.91765 -9 15 C-9.66 15 -10.32 15 -11 15 C-11 15.66 -11 16.32 -11 17 C-11.66 16.67 -12.32 16.34 -13 16 C-12.67 15.34 -12.34 14.68 -12 14 C-11.34 14 -10.68 14 -10 14 C-10 12.68 -10 11.36 -10 10 C-9.40703125 9.75507812 -8.8140625 9.51015625 -8.203125 9.2578125 C-5.63301274 7.79047891 -4.45470034 6.27707775 -2.75 3.875 C-1.96882813 2.78832031 -1.96882813 2.78832031 -1.171875 1.6796875 C-0.78515625 1.12539063 -0.3984375 0.57109375 0 0 Z " fill="#5C6130" transform="translate(69,58)"/>
<path d="M0 0 C0.99 0.33 1.98 0.66 3 1 C3.69289369 4.72430357 4.11144596 8.21083746 4 12 C9.71735105 14.45029331 13.79029227 15.33266291 20 15 C20.33 15.66 20.66 16.32 21 17 C18.56680171 19.94545056 16.67586393 20.32286717 13 21 C12.67 21.66 12.34 22.32 12 23 C11.34 23 10.68 23 10 23 C10 23.66 10 24.32 10 25 C5.8803623 26.29243536 2.33168317 27.26252625 -2 27 C-2 26.34 -2 25.68 -2 25 C-2.99 25 -3.98 25 -5 25 C-5.33428305 16.30864059 -4.93256931 7.39209702 0 0 Z " fill="#BF683F" transform="translate(14,28)"/>
<path d="M0 0 C1.58203125 1.0703125 1.58203125 1.0703125 2.58203125 3.0703125 C-1.71287477 2.7002299 -5.72180647 2.28548993 -9.85546875 1.0078125 C-18.20928526 -1.19056027 -27.45461534 -0.30655255 -35.41796875 3.0703125 C-36.80423947 5.06721289 -36.80423947 5.06721289 -37.41796875 7.0703125 C-39.39796875 7.0703125 -41.37796875 7.0703125 -43.41796875 7.0703125 C-43.41796875 7.7303125 -43.41796875 8.3903125 -43.41796875 9.0703125 C-44.07796875 9.0703125 -44.73796875 9.0703125 -45.41796875 9.0703125 C-45.74796875 10.7203125 -46.07796875 12.3703125 -46.41796875 14.0703125 C-46.74796875 13.4103125 -47.07796875 12.7503125 -47.41796875 12.0703125 C-48.07796875 12.0703125 -48.73796875 12.0703125 -49.41796875 12.0703125 C-49.35609375 12.7921875 -49.29421875 13.5140625 -49.23046875 14.2578125 C-49.41796875 17.0703125 -49.41796875 17.0703125 -50.82421875 19.2578125 C-52.76524446 22.68315198 -53.43519758 26.05530773 -54.10546875 29.8828125 C-54.23501953 30.57568359 -54.36457031 31.26855469 -54.49804688 31.98242188 C-54.81354434 33.67676014 -55.11699522 35.37333408 -55.41796875 37.0703125 C-55.74796875 37.0703125 -56.07796875 37.0703125 -56.41796875 37.0703125 C-56.96940869 26.43977597 -56.29324931 18.66793997 -50.16796875 9.8203125 C-37.18416841 -3.16348784 -17.18967998 -8.12821995 0 0 Z " fill="#B17252" transform="translate(64.41796875,10.9296875)"/>
<path d="M0 0 C1.2063366 5.22745859 0.75612577 9.76528314 0 15 C0.66 15 1.32 15 2 15 C2.33 17.97 2.66 20.94 3 24 C2.01 24 1.02 24 0 24 C-1 21 -1 21 0 18 C-0.66 17.67 -1.32 17.34 -2 17 C-1.67 14.69 -1.34 12.38 -1 10 C-1.515625 10.20625 -2.03125 10.4125 -2.5625 10.625 C-6.07389184 11.16521413 -8.64848782 10.09790916 -12 9 C-13.134375 8.62875 -14.26875 8.2575 -15.4375 7.875 C-16.7059375 7.441875 -16.7059375 7.441875 -18 7 C-13.01844905 2.64114292 -6.86472585 -2.57427219 0 0 Z " fill="#636534" transform="translate(42,52)"/>
<path d="M0 0 C4.07595308 -0.47337615 5.74084646 -0.16582093 9.25390625 2.08203125 C10.36855957 2.97771125 11.47130253 3.88838812 12.5625 4.8125 C17.45794533 8.82619261 22.28441665 12.24805246 28 15 C27.01 17.64 26.02 20.28 25 23 C24 21 24 21 24 18 C19.71 15.69 15.42 13.38 11 11 C11 10.34 11 9.68 11 9 C10.278125 8.731875 9.55625 8.46375 8.8125 8.1875 C5.97011947 6.98738377 3.50357139 5.80813489 1 4 C0.1875 1.8125 0.1875 1.8125 0 0 Z " fill="#F6EED4" transform="translate(53,44)"/>
<path d="M0 0 C8.52233951 4.09072297 13.05957424 10.47905523 16.3125 19.2890625 C18.25806446 26.9607769 17.2964294 34.53660447 15 42 C14.67 42 14.34 42 14 42 C14.02320312 40.87722656 14.04640625 39.75445312 14.0703125 38.59765625 C14.34713009 27.13804507 14.34713009 27.13804507 12 16 C11.01 15.67 10.02 15.34 9 15 C6 9.77777778 6 9.77777778 6 7 C5.01 7 4.02 7 3 7 C3 6.34 3 5.68 3 5 C2.34 5 1.68 5 1 5 C0.67 3.35 0.34 1.7 0 0 Z " fill="#C17C5C" transform="translate(67,14)"/>
<path d="M0 0 C4.38642128 1.52822587 8.18974253 4.22295675 12.07421875 6.72265625 C12.73421875 7.05265625 13.39421875 7.38265625 14.07421875 7.72265625 C14.07421875 8.38265625 14.07421875 9.04265625 14.07421875 9.72265625 C16.05421875 10.38265625 18.03421875 11.04265625 20.07421875 11.72265625 C19.41421875 13.04265625 18.75421875 14.36265625 18.07421875 15.72265625 C15.56338761 14.46724068 15.20296429 13.22202137 14.07421875 10.72265625 C12.09421875 10.72265625 10.11421875 10.72265625 8.07421875 10.72265625 C8.01234375 10.12453125 7.95046875 9.52640625 7.88671875 8.91015625 C7.21534779 6.5279339 7.21534779 6.5279339 4.88671875 4.97265625 C1.7181116 3.56438641 -0.4959258 3.48336401 -3.92578125 3.72265625 C-4.58578125 5.04265625 -5.24578125 6.36265625 -5.92578125 7.72265625 C-7.90578125 7.06265625 -9.88578125 6.40265625 -11.92578125 5.72265625 C-10.95046155 4.69857057 -9.94379482 3.70431219 -8.92578125 2.72265625 C-8.34828125 2.14515625 -7.77078125 1.56765625 -7.17578125 0.97265625 C-4.5861449 -0.46603061 -2.89884506 -0.54707054 0 0 Z " fill="#909C4C" transform="translate(49.92578125,45.27734375)"/>
<path d="M0 0 C1.5 1.375 1.5 1.375 3 3 C3 3.66 3 4.32 3 5 C4.98 5 6.96 5 9 5 C9 6.32 9 7.64 9 9 C5.54422178 11.10718184 3.4664468 12.00804219 -0.625 11.9375 C-4.25302121 10.92971633 -5.66761855 9.892153 -8 7 C-6.02 6.67 -4.04 6.34 -2 6 C-1.855625 5.38125 -1.71125 4.7625 -1.5625 4.125 C-1 2 -1 2 0 0 Z " fill="#F8D7A7" transform="translate(67,35)"/>
<path d="M0 0 C1.2077558 3.62326739 0.54311128 4.64146369 -1 8 C-1.33 7.34 -1.66 6.68 -2 6 C-2.66 6 -3.32 6 -4 6 C-3.938125 6.721875 -3.87625 7.44375 -3.8125 8.1875 C-4 11 -4 11 -5.40625 13.1875 C-7.34727571 16.61283948 -8.01722883 19.98499523 -8.6875 23.8125 C-8.81705078 24.50537109 -8.94660156 25.19824219 -9.08007812 25.91210938 C-9.39557559 27.60644764 -9.69902647 29.30302158 -10 31 C-10.33 31 -10.66 31 -11 31 C-11.54522261 20.48931963 -11.11481986 11.89727389 -4.375 3.4375 C-2 1 -2 1 0 0 Z " fill="#B0725C" transform="translate(19,17)"/>
<path d="M0 0 C4.95 0.33 9.9 0.66 15 1 C15 1.66 15 2.32 15 3 C13.82824219 3.02578125 12.65648437 3.0515625 11.44921875 3.078125 C-0.49737316 3.45988657 -11.03043706 4.27285768 -20 13 C-21.32 12.34 -22.64 11.68 -24 11 C-23.16855469 10.60167969 -22.33710938 10.20335937 -21.48046875 9.79296875 C-20.39378906 9.26316406 -19.30710937 8.73335937 -18.1875 8.1875 C-17.10855469 7.66542969 -16.02960937 7.14335937 -14.91796875 6.60546875 C-12.04218919 5.21706419 -12.04218919 5.21706419 -10.40625 3.3125 C-9 2 -9 2 -6.73828125 1.70703125 C-5.93777344 1.74183594 -5.13726562 1.77664062 -4.3125 1.8125 C-3.10013672 1.85310547 -3.10013672 1.85310547 -1.86328125 1.89453125 C-1.24839844 1.92933594 -0.63351563 1.96414062 0 2 C0 1.34 0 0.68 0 0 Z " fill="#F3DBCC" transform="translate(39,5)"/>
<path d="M0 0 C1.32 0.33 2.64 0.66 4 1 C-0.07948823 4.48872085 -4.39505152 7.09067028 -9.0625 9.6875 C-10.12307617 10.29174805 -10.12307617 10.29174805 -11.20507812 10.90820312 C-11.89150391 11.29298828 -12.57792969 11.67777344 -13.28515625 12.07421875 C-13.90269775 12.42057373 -14.52023926 12.76692871 -15.15649414 13.1237793 C-17.08406964 14.03995841 -18.9178235 14.55285396 -21 15 C-22.4606285 12.35261084 -23 11.10551666 -23 8 C-22.34 8 -21.68 8 -21 8 C-21 8.66 -21 9.32 -21 10 C-19.35 10 -17.7 10 -16 10 C-15.67 9.34 -15.34 8.68 -15 8 C-13.02 8 -11.04 8 -9 8 C-9 7.34 -9 6.68 -9 6 C-8.34 6 -7.68 6 -7 6 C-6.67 5.01 -6.34 4.02 -6 3 C-4.35 3 -2.7 3 -1 3 C-0.67 2.01 -0.34 1.02 0 0 Z " fill="#A5694A" transform="translate(33,45)"/>
<path d="M0 0 C1.32 0.33 2.64 0.66 4 1 C5.2063366 6.22745859 4.75612577 10.76528314 4 16 C4.66 16 5.32 16 6 16 C6.33 18.97 6.66 21.94 7 25 C6.01 25 5.02 25 4 25 C3 22 3 22 4 19 C3.34 18.67 2.68 18.34 2 18 C2.33 15.69 2.66 13.38 3 11 C2.1028125 11.3403125 2.1028125 11.3403125 1.1875 11.6875 C0.465625 11.790625 -0.25625 11.89375 -1 12 C-2.75 10.5625 -2.75 10.5625 -4 9 C-1.69 8.34 0.62 7.68 3 7 C3 6.01 3 5.02 3 4 C2.01 3.67 1.02 3.34 0 3 C0 2.01 0 1.02 0 0 Z " fill="#666B2C" transform="translate(38,51)"/>
<path d="M0 0 C0.33 0.66 0.66 1.32 1 2 C2.65 1.67 4.3 1.34 6 1 C5.67 3.97 5.34 6.94 5 10 C4.01 10.33 3.02 10.66 2 11 C1.34 10.67 0.68 10.34 0 10 C-0.625 7.4375 -0.625 7.4375 -1 5 C-4.24849977 6.72226496 -4.24849977 6.72226496 -5 10 C-5.66 10 -6.32 10 -7 10 C-7 10.66 -7 11.32 -7 12 C-7.66 11.67 -8.32 11.34 -9 11 C-8.67 10.34 -8.34 9.68 -8 9 C-7.34 9 -6.68 9 -6 9 C-6 7.68 -6 6.36 -6 5 C-5.38125 4.731875 -4.7625 4.46375 -4.125 4.1875 C-1.7004767 3.04443152 -1.7004767 3.04443152 0 0 Z " fill="#687126" transform="translate(65,63)"/>
<path d="M0 0 C0.66 0 1.32 0 2 0 C2 0.99 2 1.98 2 3 C2.66 3 3.32 3 4 3 C4.33 2.01 4.66 1.02 5 0 C6.32 0.66 7.64 1.32 9 2 C8.2884375 2.99 8.2884375 2.99 7.5625 4 C5.29549991 8.35264018 4.57698446 12.58276835 5.4375 17.5 C5.623125 17.995 5.80875 18.49 6 19 C4.68 18.34 3.36 17.68 2 17 C2.04125 15.948125 2.0825 14.89625 2.125 13.8125 C2.00582627 10.17770129 1.37725287 8.27097557 0 5 C-0.125 2.1875 -0.125 2.1875 0 0 Z " fill="#B87148" transform="translate(15,23)"/>
<path d="M0 0 C8.76826196 -0.29722922 8.76826196 -0.29722922 13 2 C14.01868662 2.98095748 15.02351983 3.97702078 16 5 C16.66 5 17.32 5 18 5 C19.625 6.125 19.625 6.125 21 8 C21.1875 11.1875 21.1875 11.1875 21 14 C20.5875 13.62488281 20.175 13.24976563 19.75 12.86328125 C13.77214699 7.56594276 7.79933067 3.14481593 0 1 C0 0.67 0 0.34 0 0 Z " fill="#F5E0CB" transform="translate(56,8)"/>
<path d="M0 0 C0.53109375 0.33773437 1.0621875 0.67546875 1.609375 1.0234375 C2.31578125 1.46945313 3.0221875 1.91546875 3.75 2.375 C4.79414062 3.03628906 4.79414062 3.03628906 5.859375 3.7109375 C7.86517383 4.91880906 9.89178296 5.98387737 12 7 C11.01 9.64 10.02 12.28 9 15 C8 13 8 13 8 10 C4.37 8.02 0.74 6.04 -3 4 C-3 3.34 -3 2.68 -3 2 C-2.01 2 -1.02 2 0 2 C0 1.34 0 0.68 0 0 Z " fill="#E5D2B6" transform="translate(69,52)"/>
<path d="M0 0 C2.80975951 1.03225932 5.31807135 2.40201983 7.9296875 3.86328125 C8.91453125 4.41113281 9.899375 4.95898438 10.9140625 5.5234375 C11.66171875 5.94496094 12.409375 6.36648437 13.1796875 6.80078125 C10.1796875 7.80078125 10.1796875 7.80078125 8.12890625 6.98828125 C7.38253906 6.59640625 6.63617188 6.20453125 5.8671875 5.80078125 C1.87049098 3.92570772 -0.50188086 3.29435161 -4.8203125 4.80078125 C-7.0275483 6.28878497 -7.0275483 6.28878497 -8.8203125 7.80078125 C-9.4803125 7.80078125 -10.1403125 7.80078125 -10.8203125 7.80078125 C-10.8203125 8.46078125 -10.8203125 9.12078125 -10.8203125 9.80078125 C-12.8203125 8.80078125 -12.8203125 8.80078125 -13.8203125 6.80078125 C-12.9540625 6.38828125 -12.0878125 5.97578125 -11.1953125 5.55078125 C-7.76476721 3.87558283 -7.76476721 3.87558283 -4.6953125 1.55078125 C-1.8203125 -0.19921875 -1.8203125 -0.19921875 0 0 Z " fill="#AB8969" transform="translate(48.8203125,37.19921875)"/>
<path d="M0 0 C2.65877957 0.36672822 3.79835472 0.79088638 5.6875 2.75 C8.51849638 7.60313665 8.15353447 12.96363775 8.125 18.4375 C8.12886719 19.17548828 8.13273437 19.91347656 8.13671875 20.67382812 C8.12921962 24.89208711 7.82963428 28.8452442 7 33 C6.34 33 5.68 33 5 33 C5.165 32.0925 5.33 31.185 5.5 30.25 C7.04903292 18.58531274 5.24678891 10.49357782 0 0 Z " fill="#FCECDA" transform="translate(77,22)"/>
<path d="M0 0 C2.4375 0.6875 2.4375 0.6875 5 2 C5.9375 4.5 5.9375 4.5 6 7 C5.34 7.66 4.68 8.32 4 9 C3.28072705 11.31765729 2.6090107 13.65095874 2 16 C1.01 15.67 0.02 15.34 -1 15 C-0.34 15 0.32 15 1 15 C1.33 12.03 1.66 9.06 2 6 C0.35 6.33 -1.3 6.66 -3 7 C-2.38722388 4.03824877 -1.74627478 2.61941217 0 0 Z " fill="#5D6321" transform="translate(69,58)"/>
<path d="M0 0 C0.66 0 1.32 0 2 0 C1.67 0.86625 1.34 1.7325 1 2.625 C-1.59498005 11.76303689 -0.33867135 21.9376485 2 31 C-0.27229646 29.30718477 -1.78230737 27.90922798 -2.45605469 25.09521484 C-2.69303198 22.78804947 -2.80720437 20.5057338 -2.875 18.1875 C-2.94460937 17.01477539 -2.94460937 17.01477539 -3.015625 15.81835938 C-3.26655819 10.04207045 -2.62023111 5.24046221 0 0 Z " fill="#FDEEE1" transform="translate(9,27)"/>
<path d="M0 0 C0.556875 0.391875 1.11375 0.78375 1.6875 1.1875 C-1.07042717 4.25186352 -3.29575636 6.10983707 -7.3125 7.1875 C-10.125 6.8125 -10.125 6.8125 -12.3125 6.1875 C-3.40215969 -1.1953534 -3.40215969 -1.1953534 0 0 Z " fill="#EAD7B9" transform="translate(37.3125,47.8125)"/>
<path d="M0 0 C0.99 0.495 0.99 0.495 2 1 C4.47339212 8.42017635 3.25762843 16.6627076 1 24 C0.67 24 0.34 24 0 24 C0 16.08 0 8.16 0 0 Z " fill="#B78262" transform="translate(81,32)"/>
<path d="M0 0 C0.66 0.66 1.32 1.32 2 2 C0.80086322 6.39683488 -0.4288115 9.09840934 -4 12 C-4.66 12 -5.32 12 -6 12 C-5.125 8.125 -5.125 8.125 -4 7 C-4.33 6.01 -4.66 5.02 -5 4 C-3.35 2.68 -1.7 1.36 0 0 Z " fill="#525429" transform="translate(55,85)"/>
<path d="M0 0 C-0.99 1.32 -1.98 2.64 -3 4 C-7.55737263 3.56179109 -10.57653445 3.14958831 -14 0 C-4.58997722 -1.33257403 -4.58997722 -1.33257403 0 0 Z M-11 4 C-8 5 -8 5 -8 5 Z " fill="#AA633C" transform="translate(35,44)"/>
<path d="M0 0 C0.66 0 1.32 0 2 0 C2 0.66 2 1.32 2 2 C3.65 2 5.3 2 7 2 C7.33 1.34 7.66 0.68 8 0 C8.99 0.33 9.98 0.66 11 1 C11 1.66 11 2.32 11 3 C7.04 4.98 7.04 4.98 3 7 C0 3.375 0 3.375 0 0 Z " fill="#B57358" transform="translate(10,53)"/>
<path d="M0 0 C2.97 0.33 5.94 0.66 9 1 C6 3 6 3 4 3 C3.67 3.99 3.34 4.98 3 6 C2.01 6.33 1.02 6.66 0 7 C-0.33 6.67 -0.66 6.34 -1 6 C-1.33 6.66 -1.66 7.32 -2 8 C-2.66 7.67 -3.32 7.34 -4 7 C-3.34 5.35 -2.68 3.7 -2 2 C-1.34 2 -0.68 2 0 2 C0 1.34 0 0.68 0 0 Z " fill="#BA623A" transform="translate(21,18)"/>
<path d="M0 0 C2.2477975 2.05233685 3.0022242 3.00667261 4 6 C3.34 6.66 2.68 7.32 2 8 C-1.28288776 7.88679697 -2.30354487 6.71715137 -4.75 4.4375 C-5.4925 3.633125 -6.235 2.82875 -7 2 C-6.01 1.67 -5.02 1.34 -4 1 C-3.67 1.66 -3.34 2.32 -3 3 C-2.34 3 -1.68 3 -1 3 C-0.67 2.01 -0.34 1.02 0 0 Z " fill="#616645" transform="translate(46,92)"/>
<path d="M0 0 C2.64 0.66 5.28 1.32 8 2 C8 2.66 8 3.32 8 4 C8.66 4 9.32 4 10 4 C10.99 5.98 11.98 7.96 13 10 C10.01517153 8.60484422 7.44642111 6.97667625 4.8125 5 C4.11769531 4.484375 3.42289062 3.96875 2.70703125 3.4375 C1 2 1 2 0 0 Z " fill="#AB765A" transform="translate(61,45)"/>
<path d="M0 0 C1.12894876 0.93274109 2.25300876 1.87140122 3.375 2.8125 C4.00148438 3.33457031 4.62796875 3.85664062 5.2734375 4.39453125 C7 6 7 6 9 9 C7.68 9 6.36 9 5 9 C4.67 8.01 4.34 7.02 4 6 C3.01 6.33 2.02 6.66 1 7 C0.67 4.69 0.34 2.38 0 0 Z " fill="#F2F1E5" transform="translate(30,86)"/>
<path d="M0 0 C1.98362069 2.91708924 1.9876191 4.12380904 1.625 7.75 C1.41875 8.8225 1.2125 9.895 1 11 C0.01 11 -0.98 11 -2 11 C-3.70532323 12.94009522 -3.70532323 12.94009522 -5 15 C-4.44271087 11.65626525 -3.64826111 8.96687001 -2 6 C-1.34 6 -0.68 6 0 6 C0 4.02 0 2.04 0 0 Z " fill="#FBF6E9" transform="translate(84,49)"/>
<path d="M0 0 C0.99 0 1.98 0 3 0 C2.67 2.31 2.34 4.62 2 7 C0.68 7.33 -0.64 7.66 -2 8 C-1.125 1.125 -1.125 1.125 0 0 Z " fill="#7E893A" transform="translate(68,64)"/>
<path d="M0 0 C1.2077558 3.62326739 0.54311128 4.64146369 -1 8 C-1.33 7.34 -1.66 6.68 -2 6 C-2.66 6 -3.32 6 -4 6 C-4 6.66 -4 7.32 -4 8 C-4.99 8.33 -5.98 8.66 -7 9 C-5.64978174 4.58110387 -3.73884332 2.65654657 0 0 Z " fill="#B88063" transform="translate(19,17)"/>
<path d="M0 0 C0.66 0 1.32 0 2 0 C0.92598892 2.91517292 0.22189824 4.77810176 -2 7 C-4.72869407 6.96712417 -7.2966618 6.43602229 -10 6 C-10 5.67 -10 5.34 -10 5 C-8.906875 4.690625 -7.81375 4.38125 -6.6875 4.0625 C-4.44592006 3.41662103 -2.2130649 2.7376883 0 2 C0 1.34 0 0.68 0 0 Z " fill="#5E651F" transform="translate(58,73)"/>
<path d="M0 0 C0.33 0.66 0.66 1.32 1 2 C2.32 2 3.64 2 5 2 C5 2.66 5 3.32 5 4 C7.97 4.495 7.97 4.495 11 5 C11 5.33 11 5.66 11 6 C7.7 6 4.4 6 1 6 C0.34 4.35 -0.32 2.7 -1 1 C-0.67 0.67 -0.34 0.34 0 0 Z " fill="#565C1B" transform="translate(41,74)"/>
<path d="M0 0 C0.33 0 0.66 0 1 0 C1.99 5.94 2.98 11.88 4 18 C0 14 0 14 -0.390625 10.546875 C-0.34421875 9.29390625 -0.2978125 8.0409375 -0.25 6.75 C-0.21390625 5.48671875 -0.1778125 4.2234375 -0.140625 2.921875 C-0.09421875 1.95765625 -0.0478125 0.9934375 0 0 Z " fill="#F4D9C9" transform="translate(7,40)"/>
<path d="M0 0 C3 2 3 2 3.6875 4.625 C3.790625 5.40875 3.89375 6.1925 4 7 C2.68 7.33 1.36 7.66 0 8 C-0.99 6.68 -1.98 5.36 -3 4 C-2.01 2.68 -1.02 1.36 0 0 Z " fill="#C56A46" transform="translate(20,46)"/>
<path d="M0 0 C4 0 4 0 5.75 1.125 C7.5133966 3.77009491 7.20694492 5.89582621 7 9 C5.82460004 8.07347299 4.65989423 7.13336613 3.5 6.1875 C2.52546875 5.40439453 2.52546875 5.40439453 1.53125 4.60546875 C0 3 0 3 0 0 Z " fill="#F8E7D9" transform="translate(70,13)"/>
<path d="M0 0 C0.66 0 1.32 0 2 0 C2.33 0.66 2.66 1.32 3 2 C3.99 2 4.98 2 6 2 C4.95125002 4.62187494 4.35068687 5.79371361 1.875 7.25 C1.25625 7.4975 0.6375 7.745 0 8 C0 5.36 0 2.72 0 0 Z " fill="#B46443" transform="translate(9,45)"/>
<path d="M0 0 C3.96 1.98 7.92 3.96 12 6 C8.01508155 7.32830615 6.59951452 6.23204404 2.8125 4.5625 C1.72582031 4.08941406 0.63914063 3.61632813 -0.48046875 3.12890625 C-1.31191406 2.75636719 -2.14335938 2.38382813 -3 2 C-2.01 1.34 -1.02 0.68 0 0 Z " fill="#BEA07C" transform="translate(50,38)"/>
<path d="M0 0 C2.49361571 1.20381448 4.68143083 2.45428722 7 4 C8.65549531 4.38499891 10.3222433 4.72793135 12 5 C12 5.33 12 5.66 12 6 C8.7 6 5.4 6 2 6 C1.34 4.02 0.68 2.04 0 0 Z " fill="#F2F0E8" transform="translate(52,2)"/>
<path d="M0 0 C3.08089673 2.77280706 4.68775452 5.06326356 6 9 C5.01 9.33 4.02 9.66 3 10 C0.96564469 6.27034861 0 4.33094958 0 0 Z " fill="#E7EADA" transform="translate(14,65)"/>
<path d="M0 0 C1.32 0.33 2.64 0.66 4 1 C5.125 6.75 5.125 6.75 4 9 C3.01 8.67 2.02 8.34 1 8 C1.66 7.67 2.32 7.34 3 7 C3 6.01 3 5.02 3 4 C2.01 3.67 1.02 3.34 0 3 C0 2.01 0 1.02 0 0 Z " fill="#5C6520" transform="translate(38,51)"/>
<path d="M0 0 C0 0.66 0 1.32 0 2 C-2.96187272 4.17204 -5.50685991 5.83561997 -9 7 C-6.79922603 2.09058114 -5.62803596 0 0 0 Z " fill="#E9EADC" transform="translate(59,92)"/>
<path d="M0 0 C2.97 0.495 2.97 0.495 6 1 C6 1.99 6 2.98 6 4 C3.36 4 0.72 4 -2 4 C-1.34 2.68 -0.68 1.36 0 0 Z " fill="#FBE7CA" transform="translate(46,40)"/>
<path d="M0 0 C2.5 1.375 2.5 1.375 5 3 C5 3.66 5 4.32 5 5 C-0.75 5.125 -0.75 5.125 -3 4 C-3 3.34 -3 2.68 -3 2 C-2.01 2 -1.02 2 0 2 C0 1.34 0 0.68 0 0 Z " fill="#F2E3C5" transform="translate(69,52)"/>
<path d="M0 0 C0.99 0 1.98 0 3 0 C1.47291037 3.43595166 -0.59927045 6.11912454 -3 9 C-2.67 6.69 -2.34 4.38 -2 2 C-1.34 2 -0.68 2 0 2 C0 1.34 0 0.68 0 0 Z " fill="#FBF1E0" transform="translate(14,17)"/>
<path d="M0 0 C1.25541557 3.76624671 0.37061958 5.37188934 -1 9 C-2.65 9.33 -4.3 9.66 -6 10 C-4.02 6.7 -2.04 3.4 0 0 Z " fill="#E9EBD8" transform="translate(76,67)"/>
<path d="M0 0 C0.99 0.33 1.98 0.66 3 1 C3.33 3.31 3.66 5.62 4 8 C3.01 8 2.02 8 1 8 C0 5 0 5 1 2 C0.34 1.67 -0.32 1.34 -1 1 C-0.67 0.67 -0.34 0.34 0 0 Z " fill="#626A1F" transform="translate(41,68)"/>
<path d="M0 0 C1.98 0.99 1.98 0.99 4 2 C3.25 6.75 3.25 6.75 1 9 C0.45627049 5.94152152 0 3.11227195 0 0 Z " fill="#696C48" transform="translate(74,60)"/>
<path d="M0 0 C2.31 0.33 4.62 0.66 7 1 C5.84826645 3.46800047 4.95216435 5.04783565 3 7 C2.896875 6.360625 2.79375 5.72125 2.6875 5.0625 C2.460625 4.381875 2.23375 3.70125 2 3 C1.01 2.67 0.02 2.34 -1 2 C-0.67 1.34 -0.34 0.68 0 0 Z " fill="#C37448" transform="translate(65,30)"/>
<path d="M0 0 C0.33 0.66 0.66 1.32 1 2 C1.66 2.28875 2.32 2.5775 3 2.875 C5 4 5 4 5.75 6.125 C5.8325 6.74375 5.915 7.3625 6 8 C5.01 8.495 5.01 8.495 4 9 C3.67 8.01 3.34 7.02 3 6 C2.01 5.67 1.02 5.34 0 5 C-0.75 3 -0.75 3 -1 1 C-0.67 0.67 -0.34 0.34 0 0 Z " fill="#F5F5EB" transform="translate(77,17)"/>
<path d="M0 0 C0.33 1.32 0.66 2.64 1 4 C1.99 3.67 2.98 3.34 4 3 C4 5.31 4 7.62 4 10 C3.34 10 2.68 10 2 10 C0.39644899 6.49223216 -0.22036864 3.85645121 0 0 Z " fill="#88933B" transform="translate(44,68)"/>
<path d="M0 0 C1.32 0.33 2.64 0.66 4 1 C3.375 2.9375 3.375 2.9375 2 5 C-1.125 5.75 -1.125 5.75 -4 6 C-2.68 4.02 -1.36 2.04 0 0 Z " fill="#AE6D42" transform="translate(25,21)"/>
<path d="M0 0 C-0.33 1.65 -0.66 3.3 -1 5 C-2.65 3.35 -4.3 1.7 -6 0 C-2.25 -1.125 -2.25 -1.125 0 0 Z " fill="#62623B" transform="translate(36,85)"/>
<path d="M0 0 C0.66 0.33 1.32 0.66 2 1 C1.50168276 4.68754757 0.89932357 6.60490662 -2 9 C-1.125 1.125 -1.125 1.125 0 0 Z " fill="#63693B" transform="translate(73,66)"/>
<path d="M0 0 C1.98 0 3.96 0 6 0 C5.67 1.32 5.34 2.64 5 4 C2.525 3.01 2.525 3.01 0 2 C0 1.34 0 0.68 0 0 Z " fill="#FDF9E2" transform="translate(53,44)"/>
<path d="M0 0 C2.31 0.66 4.62 1.32 7 2 C7 2.66 7 3.32 7 4 C7.99 4.33 8.98 4.66 10 5 C4.5388601 4.64766839 4.5388601 4.64766839 2 4 C0.5 1.9375 0.5 1.9375 0 0 Z " fill="#F8D6A3" transform="translate(20,39)"/>
<path d="M0 0 C3.3 0.33 6.6 0.66 10 1 C8.515 2.485 8.515 2.485 7 4 C3.3125 3.6875 3.3125 3.6875 0 3 C0 2.01 0 1.02 0 0 Z " fill="#B57245" transform="translate(46,21)"/>
<path d="M0 0 C2.01822917 0.06510417 4.03645833 0.13020833 6.0546875 0.1953125 C4.7346875 0.5253125 3.4146875 0.8553125 2.0546875 1.1953125 C2.3846875 2.1853125 2.7146875 3.1753125 3.0546875 4.1953125 C0.7446875 3.5353125 -1.5653125 2.8753125 -3.9453125 2.1953125 C-1.9453125 0.1953125 -1.9453125 0.1953125 0 0 Z " fill="#E2DBAE" transform="translate(50.9453125,42.8046875)"/>
<path d="M0 0 C0.99 0 1.98 0 3 0 C1.60667426 3.36720387 0.0210714 4.9859524 -3 7 C-2.67 5.68 -2.34 4.36 -2 3 C-1.34 3 -0.68 3 0 3 C0 2.01 0 1.02 0 0 Z " fill="#6B6A4E" transform="translate(59,85)"/>
<path d="M0 0 C1.65 0 3.3 0 5 0 C4.74438677 2.3431213 4.40729228 4.67843403 4 7 C3.01 7.495 3.01 7.495 2 8 C2 6.35 2 4.7 2 3 C1.34 2.67 0.68 2.34 0 2 C0 1.34 0 0.68 0 0 Z " fill="#E6DFCA" transform="translate(75,59)"/>
<path d="M0 0 C-0.8125 1.9375 -0.8125 1.9375 -2 4 C-2.99 4.33 -3.98 4.66 -5 5 C-5.66 4.34 -6.32 3.68 -7 3 C-2.25 0 -2.25 0 0 0 Z " fill="#F4E6D9" transform="translate(22,13)"/>
</svg>
